<svg xmlns="http://www.w3.org/2000/svg" viewBox="0 0 256 257" width="256" height="257" aria-hidden="true" role="img">
  <defs>
    <linearGradient id="g1" x1="0%" x2="60%" y1="10%" y2="80%">
      <stop offset="0%" stop-color="#FFD166"/>
      <stop offset="100%" stop-color="#FF6A00"/>
    </linearGradient>
    <linearGradient id="g2" x1="45%" x2="55%" y1="2%" y2="90%">
      <stop offset="0%" stop-color="#FFB347"/>
      <stop offset="100%" stop-color="#FF3B00"/>
    </linearGradient>
  </defs>
  <rect width="256" height="257" rx="8" fill="rgba(0,0,0,0)" />
  <path fill="url(#g1)" d="M255 38L135 253c-2 4-9 4-11 .05L1 38c-3-5 1-11 7-10l119 22a6 6 0 0 0 2-.01l117-21c5-1 9 5 7 10z"/>
  <path fill="url(#g2)" d="M185 1l-89 17a3 3 0 0 0-3 3l-5 92a3 3 0 0 0 4 3l25-6c2-.5 4 1.5 4 3.8l-7 36c-.5 2.4 1.8 4.5 4 3.8l15-5c2.3-.7 4.6 1.3 4.2 3.8l-12 56c-.7 3.5 4 5.5 6 2.4l1-2l72-145c1.2-2.4-0.9-5.2-3.5-4.7l-25 5c-2.4.5-4.4-1.8-3.8-4.1l17-58c.7-2.3-1.4-4.6-3.8-4.1z"/>
  <!-- Bottom text (wordmark) -->
  <g transform="translate(20,188)">
    <text x="0" y="0" fill="#ffb347" font-family="Georgia, 'Times New Roman', serif" font-size="36" font-weight="900">SKATES</text>
    <text x="10" y="28" fill="#ffb347" font-family="Inter, Arial, sans-serif" font-size="12">GAMEHOSTING</text>
  </g>
</svg>